<?xml version="1.0" encoding="utf-8"?>
<!-- Generator: Adobe Illustrator 18.0.0, SVG Export Plug-In . SVG Version: 6.00 Build 0)  -->
<!DOCTYPE svg PUBLIC "-//W3C//DTD SVG 1.1//EN" "http://www.w3.org/Graphics/SVG/1.1/DTD/svg11.dtd">
<svg version="1.1" id="Layer_1" xmlns="http://www.w3.org/2000/svg" xmlns:xlink="http://www.w3.org/1999/xlink" x="0px" y="0px"
	 viewBox="0 0 595.3 617.7" enable-background="new 0 0 595.3 617.7" xml:space="preserve">
<circle fill="#FFDCC0" cx="333.6" cy="328.4" r="258.7"/>
<g>
	
		<linearGradient id="SVGID_1_" gradientUnits="userSpaceOnUse" x1="178.0498" y1="594.0167" x2="178.0498" y2="47.6845" gradientTransform="matrix(0.9637 0 0 0.9637 129.6706 0.4244)">
		<stop  offset="0" style="stop-color:#F35900"/>
		<stop  offset="1" style="stop-color:#F88F00"/>
	</linearGradient>
	<circle fill="none" stroke="url(#SVGID_1_)" stroke-width="9.396" stroke-miterlimit="10" cx="301.3" cy="309.6" r="258.7"/>
	<g>
		<linearGradient id="SVGID_2_" gradientUnits="userSpaceOnUse" x1="323.2147" y1="472.3275" x2="432.7092" y2="187.3417">
			<stop  offset="0" style="stop-color:#F35900"/>
			<stop  offset="1" style="stop-color:#F88F00"/>
		</linearGradient>
		<path fill="url(#SVGID_2_)" d="M339.3,488.4c-1.2-1.9-2.9-3.7-3.6-5.7c-1.3-3.9-2-8-3.2-12c-0.4-1.1-1.5-2.4-2.6-2.9
			c-3.9-1.8-8-3.5-12.1-5c-1.2-0.4-3.1-0.4-4.2,0.2c-3.8,2-7.3,4.3-11,6.5c-3.7,2.2-5.4,2-8.4-0.9c-4.8-4.7-9.5-9.5-14.3-14.3
			c-2.9-2.9-3.1-4.8-0.9-8.4c2.2-3.7,4.5-7.2,6.5-11c0.6-1.1,0.7-2.9,0.3-4.2c-1.5-4.1-3.2-8.1-5-12.1c-0.5-1.1-1.7-2.3-2.8-2.6
			c-4.3-1.3-8.7-2.3-13-3.3c-3.3-0.8-5-2.8-5-6.2c0-7,0-13.9,0-20.9c0-3.2,1.5-5.3,4.7-6c4.4-1,8.7-2,13-3.3c1.2-0.4,2.5-1.7,3-2.9
			c1.8-3.8,3.2-7.9,5.1-11.7c0.9-1.8,0.7-3-0.3-4.6c-2.4-3.7-4.5-7.5-6.8-11.2c-1.8-2.9-1.4-5.5,1-7.8c4.9-4.8,9.7-9.7,14.5-14.5
			c2.8-2.8,4.7-3,8.1-0.9c3.9,2.3,7.6,4.7,11.5,6.9c0.9,0.5,2.5,0.6,3.6,0.2c4.2-1.6,8.3-3.3,12.4-5.2c1.1-0.5,2.3-1.8,2.6-2.9
			c1.3-4.3,2.4-8.6,3.3-13c0.7-3.2,2.6-4.8,5.9-4.8c7.1,0,14.1,0,21.2,0c3.3,0,5.2,1.6,6,4.8c1,4.2,2.2,8.4,3.1,12.7
			c0.4,1.9,1.2,2.8,3.1,3.4c4.1,1.5,8,3.4,12.1,4.9c1,0.4,2.6,0.4,3.6-0.1c3.9-2.2,7.7-4.6,11.6-6.9c3.5-2.1,5.3-1.9,8.1,0.9
			c4.9,4.8,9.7,9.6,14.5,14.5c2.7,2.7,2.9,4.7,0.9,8.1c-2.2,3.7-4.3,7.4-6.6,10.9c-1,1.6-1.1,2.8-0.3,4.6c1.8,3.8,3.2,7.9,5,11.7
			c0.6,1.2,1.8,2.5,3.1,2.9c4.3,1.3,8.7,2.3,13,3.3c3.3,0.7,4.7,2.8,4.7,6c0,7,0,13.9,0,20.9c0,3.4-1.7,5.4-5,6.2
			c-4.2,1-8.5,1.9-12.7,3.2c-1.2,0.4-2.5,1.6-3.1,2.8c-1.9,3.9-3.6,8-5.1,12.1c-0.4,1.1-0.4,2.8,0.2,3.9c2.1,3.9,4.5,7.7,6.9,11.5
			c1.8,2.9,1.5,5.4-0.9,7.8c-5,4.9-9.9,9.8-14.8,14.8c-2.3,2.3-4.8,2.6-7.6,0.9c-3.8-2.3-7.6-4.8-11.5-6.9c-1.1-0.6-2.9-0.6-4.2-0.2
			c-4.1,1.4-8.1,3.1-12.1,5c-1.1,0.5-2.2,1.8-2.6,2.9c-1.2,4-1.9,8.1-3.2,12c-0.7,2.1-2.3,3.8-3.5,5.8
			C356.8,488.4,348.1,488.4,339.3,488.4z M415,448.7c-2.4-3.9-4.8-8.1-7.3-12.1c-1.4-2.3-1.3-4.5-0.2-7c2.6-5.9,5.1-11.9,7.4-17.9
			c1-2.5,2.3-4.1,5.1-4.7c4.7-1,9.3-2.3,14.3-3.6c0-4.2,0.1-8.4-0.1-12.5c0-0.7-1.2-1.8-2-2c-4-1.1-8-2.1-12.1-3
			c-2.8-0.6-4.3-2.3-5.3-5c-2.2-6-4.6-11.8-7.3-17.6c-1.2-2.6-1.4-4.8,0.2-7.2c2.2-3.4,4.3-6.8,6.2-10.4c0.4-0.8,0.5-2.5,0-3.1
			c-2.7-3.1-5.7-6-8.5-9c-4.5,2.7-8.5,5-12.5,7.6c-2.4,1.6-4.6,1.4-7.2,0.2c-5.8-2.6-11.7-5.1-17.6-7.3c-2.8-1-4.5-2.6-5.1-5.5
			c-1-4.6-2.2-9.1-3.4-13.7c-4.8,0-9.4,0-14.2,0c-1.1,4.6-2.4,9.2-3.4,13.8c-0.6,3-2.4,4.4-5.2,5.5c-6,2.2-11.8,4.7-17.6,7.3
			c-2.5,1.1-4.6,1.3-6.9-0.2c-4.1-2.6-8.2-5-12.6-7.6c-2.9,2.9-5.8,5.7-8.4,8.8c-0.6,0.6-0.7,2.3-0.3,3.1c1.9,3.5,4,7,6.2,10.4
			c1.6,2.5,1.5,4.8,0.2,7.6c-2.6,5.7-5,11.4-7.1,17.3c-1,2.9-2.5,4.6-5.4,5.2c-3.9,0.9-7.9,1.8-11.7,2.9c-0.9,0.2-2.1,1.2-2.2,1.9
			c-0.2,4.2-0.1,8.5-0.1,12.7c5,1.3,9.7,2.5,14.4,3.6c2.8,0.6,4,2.3,5,4.8c2.3,5.9,4.6,11.9,7.3,17.6c1.2,2.7,1.4,5-0.3,7.5
			c-2.2,3.4-4.3,6.8-6.2,10.4c-0.4,0.7-0.4,2.3,0.1,2.8c2.7,3.1,5.6,6.1,8.5,9.1c4.6-2.8,8.7-5.2,12.8-7.8c2.3-1.5,4.4-1.3,6.9-0.2
			c5.9,2.7,11.9,5.2,17.9,7.4c2.6,1,4.2,2.4,4.8,5c0.9,3.8,1.9,7.6,2.7,11.4c0.4,2,1.1,2.9,3.3,2.8c3-0.2,6.1-0.2,9.1,0
			c2,0.1,2.8-0.7,3.2-2.5c0.8-3.7,1.9-7.4,2.6-11.1c0.6-3.1,2.3-4.7,5.3-5.7c5.9-2.1,11.7-4.5,17.3-7.2c2.8-1.3,5-1.4,7.5,0.2
			c3.9,2.5,8,4.9,11.9,7.2C408.3,455.4,411.5,452.1,415,448.7z"/>
		<linearGradient id="SVGID_3_" gradientUnits="userSpaceOnUse" x1="158.3448" y1="408.9828" x2="267.8394" y2="123.997">
			<stop  offset="0" style="stop-color:#F35900"/>
			<stop  offset="1" style="stop-color:#F88F00"/>
		</linearGradient>
		<path fill="url(#SVGID_3_)" d="M250.6,326.7c0.2,2.9-1.1,4.7-3.7,5.8c-5.3,2.2-10.6,4.3-15.8,6.5c-2.7,1.1-4.8,0.4-6.6-1.8
			c-0.1-0.2-0.3-0.3-0.4-0.5c-3.5-7.8-9.8-9.9-17.7-8.5c-1.1,0.2-2.3,0.7-3,1.5c-2.1,2.4-3.9,4.9-5.8,7.4c-2,2.7-4.4,3.6-7.6,2.3
			c-4.9-2-9.8-3.9-14.7-5.8c-3.1-1.2-4.4-3.3-3.8-6.5c0.1-0.4,0-0.9,0.2-1.3c3.3-7.6-0.1-12.9-6-17.3c-0.8-0.6-2-0.9-2.9-0.8
			c-3.1,0.4-6.2,1-9.3,1.5c-4,0.6-5.8-0.4-7.4-4.1c-1.9-4.4-3.7-8.9-5.5-13.3c-1.7-4.2-1.2-5.9,2.5-8.6c0.1-0.1,0.2-0.1,0.3-0.2
			c8.7-6.3,8.8-6.3,8.5-16.9c0-0.9-0.8-2-1.5-2.6c-2.4-1.9-4.9-3.6-7.4-5.3c-2.8-1.9-3.7-4.3-2.2-7.5c2.2-4.8,4.3-9.6,6.4-14.4
			c1.4-3.3,3.7-4.6,7.2-3.8c0.1,0,0.2,0,0.3,0.1c11.2,1.6,11.2,1.6,18.9-6.7c0.6-0.6,0.8-1.8,0.8-2.6c-0.3-3-0.7-6-1.2-9
			c-0.6-3.2,0.5-5.5,3.5-6.8c5.3-2.2,10.6-4.3,15.8-6.5c2.7-1.1,4.8-0.4,6.6,1.7c0.1,0.2,0.3,0.3,0.4,0.5c3.5,7.5,9.4,10.1,17.3,8.5
			c1.3-0.2,2.7-0.8,3.6-1.7c2.1-2.3,3.9-4.9,5.8-7.4c1.9-2.6,4.3-3.4,7.4-2.1c4.8,1.9,9.6,3.7,14.4,5.6c3.9,1.6,5,3.5,4.2,7.6
			c-2,10.5-2.1,10.6,6,17.8c0.6,0.6,1.8,0.9,2.6,0.8c3.1-0.4,6.2-1,9.3-1.4c4.2-0.6,5.9,0.3,7.6,4.3c1.9,4.5,3.8,9.1,5.7,13.6
			c1.3,3.1,0.8,5.7-2.1,7.6c-0.4,0.3-0.7,0.6-1.1,0.8c-7.6,3.2-9.4,9.3-8.3,16.8c0.2,1,0.9,2.2,1.7,2.9c2.4,1.9,4.9,3.5,7.4,5.3
			c2.6,1.8,3.2,4.2,1.9,7.1c-2.2,5-4.4,10-6.6,15.1c-1.2,2.8-3.4,4.1-6.5,3.5c-0.3-0.1-0.7-0.1-1-0.2c-10.9-1.4-10.9-1.4-18.5,6.6
			c-0.8,0.9-1.1,2.6-1,3.9C249.5,320.7,250.1,323.7,250.6,326.7z M239.5,324.2c-0.5-3.6-0.7-6.7-1.3-9.8c-0.5-2.9,0.5-4.8,2.7-6.7
			c3.6-3.2,6.8-6.8,10.4-9.9c1.5-1.3,3.8-2.3,5.8-2.5c2.9-0.2,5.8,0.8,8.7,1c0.9,0.1,2.3-0.3,2.8-1c3.8-5.7,3.5-6.8-2-10.8
			c-0.7-0.5-1.4-1.1-2.2-1.5c-3-1.9-4.3-4.3-3.3-8c0.5-2,0.8-4.3,0.4-6.3c-2-8.6,1.6-14.1,9.1-17.8c0.7-0.3,1.7-1.4,1.5-1.9
			c-0.7-2.3-1.4-4.8-2.9-6.7c-0.6-0.7-3.1-0.1-4.7,0.1c-1.7,0.2-3.3,0.5-5,0.8c-3.2,0.6-5.5-0.4-7.6-2.9c-2.7-3.1-5.6-6.1-8.9-8.6
			c-2.8-2.2-3.8-4.5-3.1-7.8c0.2-1.1,0.5-2.2,0.6-3.3c0.9-5.8,0.8-5.7-4.5-8c-2.2-0.9-3.6-0.9-5,1.3c-1.3,2.1-3,3.9-4.4,5.9
			c-1.5,2.1-3.4,2.8-6.1,2.8c-5.2-0.1-10.5,0.4-15.7,0.2c-1.6,0-3.3-1-4.7-2c-1.1-0.8-1.8-2.2-2.7-3.4c-4.1-5.4-4.1-5.3-10.3-2.9
			c-2.2,0.9-2.9,1.9-2.2,4.3c0.6,2,0.6,4.2,1,6.3c0.6,3.2-0.6,5.5-3.2,7.5c-3.1,2.4-6.2,5-8.5,8.1c-2.8,3.7-6,4.5-10.2,3.8
			c-8.6-1.5-8.6-1.4-11.5,7.3c2.7,1.9,5.4,3.8,8.1,5.8c2.1,1.5,2.9,3.4,2.6,6.1c-0.5,3.5-1.2,7.3-0.5,10.7c1,5.5-0.5,9-5.3,12
			c-6.4,4-6.2,4.3-2.7,11.1c0.1,0.2,0.3,0.3,0.7,0.7c3-0.5,6.2-1,9.4-1.5c3-0.6,5.3,0.3,7.4,2.7c2.8,3.2,5.8,6.3,9.1,8.9
			c3,2.3,3.9,4.9,3.1,8.5c-0.6,2.8-0.9,5.7-1.4,8.5c1.9,0.8,3.5,1.3,5,2.1c2.4,1.3,4.1,1,5.5-1.5c1.1-1.9,2.7-3.5,4-5.4
			c1.6-2.4,3.7-3.2,6.6-3c4.9,0.2,9.8,0.1,14.7-0.2c2.7-0.2,4.6,0.5,6.1,2.6c1.6,2.2,3.1,4.4,4.9,6.4c0.6,0.6,2,1.1,2.7,0.9
			C234.7,326.4,237,325.2,239.5,324.2z"/>
		<linearGradient id="SVGID_4_" gradientUnits="userSpaceOnUse" x1="257.9062" y1="447.2353" x2="367.4007" y2="162.2495">
			<stop  offset="0" style="stop-color:#F35900"/>
			<stop  offset="1" style="stop-color:#F88F00"/>
		</linearGradient>
		<path fill="url(#SVGID_4_)" d="M305.7,169.8c1.1,0.1,1.9,0,2.5,0.2c5.9,2.6,9.1-1.5,12.5-5c0.5-0.5,0.6-1.6,0.5-2.4
			c-0.2-2.3-0.5-4.7-0.8-7c-0.3-2.8,0.8-4.8,3.4-5.9c4.2-1.8,8.4-3.6,12.7-5.3c2.7-1.1,5.1-0.4,6.8,2c0.3,0.4,0.6,0.7,0.8,1.1
			c2.4,5.9,7.3,6.1,12.5,5.4c1-0.1,2.1-1.1,2.8-1.9c7.1-9.3,6.1-8.7,16.7-4.6c2.1,0.8,4.2,1.7,6.2,2.5c2.9,1.2,4.2,3.2,3.6,6.4
			c-0.1,0.7-0.1,1.4-0.3,2c-1.9,4.8-0.3,8.4,3.8,11.1c1.1,0.7,2.6,1.4,3.7,1.2c12.3-2,11.1-1.8,15.5,8.6c4.6,10.8,4.1,10.3-4.5,16.2
			c-1.8,1.2-2.1,2.7-2.4,4.7c-0.8,4.9,1.2,7.8,5.3,9.9c0.8,0.4,1.5,1,2.2,1.6c1.8,1.7,2.6,3.6,1.5,6c-1.9,4.2-3.7,8.4-5.5,12.6
			c-1.1,2.4-2.9,3.6-5.6,3.4c-0.8-0.1-1.6,0.1-2.3-0.2c-5.6-2.2-9.4,0.5-12.6,4.5c-0.6,0.8-1,2-0.9,2.9c0.1,2.3,0.5,4.7,0.8,7
			c0.3,2.8-0.9,4.8-3.5,5.8c-4.1,1.7-8.3,3.5-12.4,5.1c-2.7,1.1-5.1,0.6-6.9-1.8c-0.3-0.4-0.7-0.7-0.8-1.1
			c-2.4-5.7-7.1-6.4-12.4-5.6c-1,0.2-2.3,0.9-2.9,1.8c-7.4,9.9-6.5,8.7-17.3,4.5c-1.1-0.4-2.3-0.9-3.4-1.3
			c-6.1-2.4-6.8-3.6-5.5-10.1c0.9-5-0.7-8.9-5-11.3c-0.8-0.4-1.9-0.2-2.9-0.1c-10.9,1.9-10.9,1.9-15.1-8.2
			c-4.5-10.9-5-10.3,4.5-16.8c1.7-1.2,1.9-2.6,2.2-4.5c0.6-4.5-0.8-7.4-4.8-9.8c-5.5-3.3-5.6-4.7-3-10.5c1.3-3,2.7-5.9,3.9-8.9
			C300.5,170.9,302.5,169.2,305.7,169.8z M305.1,217.7c2.1,5.7,1.5,5.3,6.9,4.1c4.2-0.9,7.7-0.4,10.1,3.7c0.7,1.1,1.7,2.3,2.8,2.9
			c6.8,3.6,7.3,9.2,5.2,15.7c-0.1,0.2,0.1,0.4,0.2,0.6c4.8,2.4,4.8,2.4,7.9-1.7c0.7-0.9,1.2-2.1,2.1-2.6c1.7-0.9,3.5-1.9,5.3-2
			c4-0.4,8-0.5,12-0.3c1.7,0.1,3.6,0.9,5.1,1.8c1.2,0.8,2,2.4,2.9,3.7c1.2,1.7,2.1,3,4.8,1.9c2.5-1.1,3.2-2.3,2.6-4.7
			c-0.2-1-0.3-2-0.5-3c-0.7-3.1,0.3-5.4,2.8-7.3c2.4-1.8,4.9-3.8,6.6-6.2c2.6-3.7,5.8-4.4,9.9-3.6c5.4,1.1,5.5,0.9,7.1-4.7
			c-1.9-1.3-4.1-2.4-5.6-4.2c-1.3-1.5-2.5-3.7-2.6-5.7c-0.3-3.9-0.1-7.8,0.3-11.7c0.2-1.9,1.1-4,2.4-5.4c1.7-1.9,4.1-3.1,6.2-4.7
			c-0.4-1.1-0.7-2-1.1-2.9c-0.3-0.7-0.6-1.4-1.2-2.6c-7.7,3.9-12.3-0.1-18-5.2c-5.4-4.9-6.8-9.4-4.7-15.7c0.1-0.2-0.1-0.4-0.1-0.6
			c-4.9-2.6-4.9-2.6-8,1.5c-0.4,0.5-0.9,1-1.2,1.6c-1.6,2.7-3.9,3.6-7.1,3.4c-3.8-0.2-7.6,0.4-11.4,0.1c-1.9-0.1-4-1.1-5.5-2.4
			c-1.8-1.6-3-3.8-4.6-5.8c-1.9,0.8-3.7,1.5-5.6,2.3c0.3,2.4,0.6,4.6,1,6.8c0.4,2.8-0.4,4.9-2.7,6.7c-2.5,1.9-5,4-6.8,6.4
			c-2.6,3.5-5.5,4.6-9.6,3.5c-1.7-0.5-3.5-0.4-5.4-0.6c-0.8,1.8-1.5,3.4-2.3,5.1c2.3,1.6,4.5,2.7,6,4.5c1.3,1.4,2.3,3.6,2.4,5.5
			c0.3,3.9-0.3,7.8-0.2,11.7c0.1,2.5-0.6,4.4-2.6,5.8C309.2,214.7,307.2,216.2,305.1,217.7z"/>
		<linearGradient id="SVGID_5_" gradientUnits="userSpaceOnUse" x1="323.2386" y1="472.3366" x2="432.7331" y2="187.3509">
			<stop  offset="0" style="stop-color:#F35900"/>
			<stop  offset="1" style="stop-color:#F88F00"/>
		</linearGradient>
		<path fill="url(#SVGID_5_)" d="M402.2,396.2c0.1,27-22.2,49.7-48.9,49.8c-28,0.1-50.3-21.8-50.5-49.5
			c-0.2-27.3,22.1-49.9,49.3-50.1C379.5,346.3,402.1,368.7,402.2,396.2z M352.4,435.4c21.7,0,39.2-17.3,39.3-39
			c0.2-21.4-17.7-39.3-39.1-39.3c-21.7,0-39.5,17.9-39.3,39.5C313.5,418.1,330.9,435.4,352.4,435.4z"/>
		<linearGradient id="SVGID_6_" gradientUnits="userSpaceOnUse" x1="158.4497" y1="409.023" x2="267.9442" y2="124.0373">
			<stop  offset="0" style="stop-color:#F35900"/>
			<stop  offset="1" style="stop-color:#F88F00"/>
		</linearGradient>
		<path fill="url(#SVGID_6_)" d="M171.6,270.9c0-21.9,18.7-40.3,41.1-40.4c21.8-0.1,39.6,17.2,39.6,38.3c0,22-19,40.3-41.6,40.3
			C188.9,309.2,171.6,292.2,171.6,270.9z M210.7,298.6c16.9,0,30.9-13.3,31-29.5c0.1-15.4-12.6-27.8-28.6-27.9
			c-17,0-30.8,13.4-30.8,29.9C182.3,286.5,194.7,298.5,210.7,298.6z"/>
		<linearGradient id="SVGID_7_" gradientUnits="userSpaceOnUse" x1="257.9023" y1="447.2338" x2="367.3968" y2="162.248">
			<stop  offset="0" style="stop-color:#F35900"/>
			<stop  offset="1" style="stop-color:#F88F00"/>
		</linearGradient>
		<path fill="url(#SVGID_7_)" d="M385.9,200.2c0,18.4-15.4,33.5-34.2,33.5c-18.3,0-32.6-14-32.7-31.8c0-18.4,15.4-33.5,34.2-33.5
			C371.6,168.5,385.9,182.4,385.9,200.2z M353.4,179.1c-13.2,0-23.7,10.1-23.7,22.8c0,12,9.6,21.2,22.1,21.2
			c12.8,0,23.5-10.2,23.6-22.6C375.5,188.5,365.9,179.1,353.4,179.1z"/>
	</g>
</g>
</svg>
